HIERARCHY
ROOT Hips
{
	OFFSET -14.64140 90.27770 -84.91600
	CHANNELS 6 Xposition Yposition Zposition Zrotation Xrotation Yrotation
	JOINT Spine
	{
		OFFSET 0.00000 13.20850 -1.60436
		CHANNELS 3 Zrotation Xrotation Yrotation
		JOINT Spine1
		{
			OFFSET 0.00000 8.61716 0.00000
			CHANNELS 3 Zrotation Xrotation Yrotation
			JOINT Spine2
			{
				OFFSET 0.00000 8.61717 0.00000
				CHANNELS 3 Zrotation Xrotation Yrotation
				JOINT Spine3
				{
					OFFSET 0.00000 8.61717 0.00000
					CHANNELS 3 Zrotation Xrotation Yrotation
					JOINT Neck
					{
						OFFSET 0.00000 11.07920 1.10792
						CHANNELS 3 Zrotation Xrotation Yrotation
						JOINT Neck1
						{
							OFFSET 0.00000 7.08032 0.00000
							CHANNELS 3 Zrotation Xrotation Yrotation
							JOINT Head
							{
								OFFSET 0.00000 7.08031 0.00000
								CHANNELS 3 Zrotation Xrotation Yrotation
								End site
								{
									OFFSET 0.00000 0.00000 0.00000
								}
							}
						}
					}
					JOINT RightShoulder
					{
						OFFSET -0.01000 7.91373 5.19711
						CHANNELS 3 Zrotation Xrotation Yrotation
						JOINT RightArm
						{
							OFFSET -18.41580 0.00000 0.00000
							CHANNELS 3 Zrotation Xrotation Yrotation
							JOINT RightForeArm
							{
								OFFSET -29.11090 0.00000 0.00000
								CHANNELS 3 Zrotation Xrotation Yrotation
								JOINT RightHand
								{
									OFFSET -24.65040 0.00000 0.00000
									CHANNELS 3 Zrotation Xrotation Yrotation
									JOINT RightHandThumb1
									{
										OFFSET -5.35114 -0.85590 3.97906
										CHANNELS 3 Zrotation Xrotation Yrotation
										JOINT RightHandThumb2
										{
											OFFSET -4.52789 0.00000 0.00000
											CHANNELS 3 Zrotation Xrotation Yrotation
											JOINT RightHandThumb3
											{
												OFFSET -2.46976 0.00000 0.00000
												CHANNELS 3 Zrotation Xrotation Yrotation
												End site
												{
													OFFSET 0.00000 0.00000 0.00000
												}
											}
										}
									}
									JOINT RightHandIndex1
									{
										OFFSET -14.26970 0.00000 2.88139
										CHANNELS 3 Zrotation Xrotation Yrotation
										JOINT RightHandIndex2
										{
											OFFSET -5.48836 0.00000 0.00000
											CHANNELS 3 Zrotation Xrotation Yrotation
											JOINT RightHandIndex3
											{
												OFFSET -3.01859 0.00000 0.00000
												CHANNELS 3 Zrotation Xrotation Yrotation
												End site
												{
													OFFSET 0.00000 0.00000 0.00000
												}
											}
										}
									}
									JOINT RightHandMiddle1
									{
										OFFSET -14.26970 0.00000 -0.09147
										CHANNELS 3 Zrotation Xrotation Yrotation
										JOINT RightHandMiddle2
										{
											OFFSET -6.17441 0.00000 0.00000
											CHANNELS 3 Zrotation Xrotation Yrotation
											JOINT RightHandMiddle3
											{
												OFFSET -3.56743 0.00000 0.00000
												CHANNELS 3 Zrotation Xrotation Yrotation
												End site
												{
													OFFSET 0.00000 0.00000 0.00000
												}
											}
										}
									}
									JOINT RightHandRing1
									{
										OFFSET -12.69180 0.00000 -3.06433
										CHANNELS 3 Zrotation Xrotation Yrotation
										JOINT RightHandRing2
										{
											OFFSET -5.62556 0.00000 0.00000
											CHANNELS 3 Zrotation Xrotation Yrotation
											JOINT RightHandRing3
											{
												OFFSET -3.56744 0.00000 0.00000
												CHANNELS 3 Zrotation Xrotation Yrotation
												End site
												{
													OFFSET 0.00000 0.00000 0.00000
												}
											}
										}
									}
									JOINT RightHandPinky1
									{
										OFFSET -11.11390 0.00000 -6.03719
										CHANNELS 3 Zrotation Xrotation Yrotation
										JOINT RightHandPinky2
										{
											OFFSET -4.52789 0.00000 0.00000
											CHANNELS 3 Zrotation Xrotation Yrotation
											JOINT RightHandPinky3
											{
												OFFSET -2.46976 0.00000 0.00000
												CHANNELS 3 Zrotation Xrotation Yrotation
												End site
												{
													OFFSET 0.00000 0.00000 0.00000
												}
											}
										}
									}
								}
							}
						}
					}
					JOINT LeftShoulder
					{
						OFFSET 0.01000 7.91373 5.19711
						CHANNELS 3 Zrotation Xrotation Yrotation
						JOINT LeftArm
						{
							OFFSET 18.41580 0.00000 0.00000
							CHANNELS 3 Zrotation Xrotation Yrotation
							JOINT LeftForeArm
							{
								OFFSET 29.11090 0.00000 0.00000
								CHANNELS 3 Zrotation Xrotation Yrotation
								JOINT LeftHand
								{
									OFFSET 24.65040 0.00000 0.00000
									CHANNELS 3 Zrotation Xrotation Yrotation
									JOINT LeftHandThumb1
									{
										OFFSET 5.35114 -0.85590 3.97906
										CHANNELS 3 Zrotation Xrotation Yrotation
										JOINT LeftHandThumb2
										{
											OFFSET 4.52789 0.00000 0.00000
											CHANNELS 3 Zrotation Xrotation Yrotation
											JOINT LeftHandThumb3
											{
												OFFSET 2.46977 0.00000 0.00000
												CHANNELS 3 Zrotation Xrotation Yrotation
												End site
												{
													OFFSET 0.00000 0.00000 0.00000
												}
											}
										}
									}
									JOINT LeftHandIndex1
									{
										OFFSET 14.26970 0.00000 2.88139
										CHANNELS 3 Zrotation Xrotation Yrotation
										JOINT LeftHandIndex2
										{
											OFFSET 5.48836 0.00000 0.00000
											CHANNELS 3 Zrotation Xrotation Yrotation
											JOINT LeftHandIndex3
											{
												OFFSET 3.01859 0.00000 0.00000
												CHANNELS 3 Zrotation Xrotation Yrotation
												End site
												{
													OFFSET 0.00000 0.00000 0.00000
												}
											}
										}
									}
									JOINT LeftHandMiddle1
									{
										OFFSET 14.26970 0.00000 -0.09147
										CHANNELS 3 Zrotation Xrotation Yrotation
										JOINT LeftHandMiddle2
										{
											OFFSET 6.17440 0.00000 0.00000
											CHANNELS 3 Zrotation Xrotation Yrotation
											JOINT LeftHandMiddle3
											{
												OFFSET 3.56744 0.00000 0.00000
												CHANNELS 3 Zrotation Xrotation Yrotation
												End site
												{
													OFFSET 0.00000 0.00000 0.00000
												}
											}
										}
									}
									JOINT LeftHandRing1
									{
										OFFSET 12.69180 0.00000 -3.06433
										CHANNELS 3 Zrotation Xrotation Yrotation
										JOINT LeftHandRing2
										{
											OFFSET 5.62556 0.00000 0.00000
											CHANNELS 3 Zrotation Xrotation Yrotation
											JOINT LeftHandRing3
											{
												OFFSET 3.56744 0.00000 0.00000
												CHANNELS 3 Zrotation Xrotation Yrotation
												End site
												{
													OFFSET 0.00000 0.00000 0.00000
												}
											}
										}
									}
									JOINT LeftHandPinky1
									{
										OFFSET 11.11390 0.00000 -6.03719
										CHANNELS 3 Zrotation Xrotation Yrotation
										JOINT LeftHandPinky2
										{
											OFFSET 4.52789 0.00000 0.00000
											CHANNELS 3 Zrotation Xrotation Yrotation
											JOINT LeftHandPinky3
											{
												OFFSET 2.46976 0.00000 0.00000
												CHANNELS 3 Zrotation Xrotation Yrotation
												End site
												{
													OFFSET 0.00000 0.00000 0.00000
												}
											}
										}
									}
								}
							}
						}
					}
					JOINT pCube4
					{
						OFFSET 0.00000 10.91090 1.10792
						CHANNELS 3 Zrotation Xrotation Yrotation
						End site
						{
							OFFSET 0.00000 0.00000 0.00000
						}
					}
				}
			}
		}
	}
	JOINT RightUpLeg
	{
		OFFSET -9.98441 0.00000 0.00000
		CHANNELS 3 Zrotation Xrotation Yrotation
		JOINT RightLeg
		{
			OFFSET 0.00000 -42.11790 0.00000
			CHANNELS 3 Zrotation Xrotation Yrotation
			JOINT RightFoot
			{
				OFFSET 0.00000 -45.00020 -0.00001
				CHANNELS 3 Zrotation Xrotation Yrotation
				JOINT RightForeFoot
				{
					OFFSET 0.00000 -3.74820 0.00000
					CHANNELS 3 Zrotation Xrotation Yrotation
					JOINT RightToeBase
					{
						OFFSET 0.00000 0.06325 14.43120
						CHANNELS 3 Zrotation Xrotation Yrotation
						End site
						{
							OFFSET 0.00000 0.00000 0.00000
						}
					}
				}
			}
		}
	}
	JOINT LeftUpLeg
	{
		OFFSET 9.98441 0.00000 0.00000
		CHANNELS 3 Zrotation Xrotation Yrotation
		JOINT LeftLeg
		{
			OFFSET 0.00000 -42.11800 0.00000
			CHANNELS 3 Zrotation Xrotation Yrotation
			JOINT LeftFoot
			{
				OFFSET 0.00000 -45.00070 0.00000
				CHANNELS 3 Zrotation Xrotation Yrotation
				JOINT LeftForeFoot
				{
					OFFSET 0.00000 -3.74824 0.00000
					CHANNELS 3 Zrotation Xrotation Yrotation
					JOINT LeftToeBase
					{
						OFFSET 0.00000 0.06325 14.43110
						CHANNELS 3 Zrotation Xrotation Yrotation
						End site
						{
							OFFSET 0.00000 0.00000 0.00000
						}
					}
				}
			}
		}
	}
}
MOTION
Frames: 4
Frame Time: 0.050000
-0.03715597301620303 0.011349788214721115 -0.01438404726729784 0.00971512966258102 -0.001759458260073708 0.012735667137670393 -1.909539972712827 1.1919929283298765 -1.0502039658727893 -0.9155007074611601 3.6813214248101542 0.3466678608036433 -1.1683383552726045 -1.424182079717787 -1.043476190277986 0.6354333078866788 0.39156702636852486 -0.8096836216624341 0.5790781282788294 11.311003080642882 -2.076376665772219 0.3907702266885881 -0.9958058838528954 -6.153400901582589 1.137846382300522 -16.538449028526006 -0.5284665732820393 -3.056889792871244 1.2588618239658491 -15.348595755038719 73.19316755518248 19.466790694675932 0.9190832901987487 1.3618578970247546 5.541684756153006 44.87875744780977 21.30594988165251 -0.08589618468327154 -4.37693045677847 4.506541728174409 -0.12481721564011554 -1.6004964443213086 0.00915245540519216 0.04953429663478697 -56.23998218369445 -0.03672437808723022 -0.023312755321257234 -56.18834789751785 -38.80946320479147 0.043087741110184055 -0.01859713427344695 0.049793714756905125 -0.0011164399441131463 0.017140530916799013 -0.0079221608673857 0.04509763750425575 -0.027303650487766146 -36.690396430231914 -0.04499050513615396 0.04113959873203034 0.012233321606028715 0.008144602968454375 -0.0009705135698794946 -0.013269426008654482 0.02982952174359654 0.03497332140568428 -19.78882741362061 -0.030318967389249364 0.03296574064116204 0.003886120699424649 0.042303765112789514 0.030146317869088553 0.04368175341799685 0.012463244735933578 -0.01262866602810801 24.05212432060543 -0.0031234923151431406 -0.01682191972472759 28.83417633322424 0.04481772362337014 -0.013064433164407188 28.880021763985944 0.02191522892290552 0.0011164409796287585 2.9911278068267806 0.9349503748223308 13.07615966087203 -69.34618071824532 28.583132205993778 -5.1149541627779085 4.1496826955457315 -7.950657892120495 -49.06303361381931 -12.040988902895517 2.3709905428308042 -0.1332624106795748 -0.43873062127357415 0.06584598028784983 -8.135671235536917 0.02477484123642677 -0.023259296250446395 44.531781442974854 -0.036863120473564076 0.0425709140431379 44.600061435554004 12.476807131245096 0.012395309815860052 0.02200429881117064 -0.025167267307994866 -0.028984933058067687 0.009085400988156557 0.030677545015626424 -0.009421117973682442 -4.9780323418626496e-05 11.14676241802224 0.03949076882362848 -0.018195737083576677 -0.007108145864719993 0.024954806190247047 -0.025624251885631298 0.029724347291202925 0.04518241409472515 -0.03898386759441421 4.780848339586167 0.04657377431540558 -0.046092867490850634 -0.003713462064442018 0.027954860465663634 0.04570195567502788 0.0018667089448389273 -0.0022763719961327016 0.00562346724549081 -5.607491030620659 -0.049694376374672 -0.042908745148755235 -6.722802498565041 0.019090554628418976 -0.023771174204604336 -6.718571395740558 0.014373592000700977 -0.03297368224495035 0.04988228251859959 -0.02943055823143888 0.038361650052789645 8.034301495584936 3.4832617473785605 -19.235954459281068 0.02341504668458461 10.428803015077659 -0.0016381335143394633 -5.59905511238987 -15.665570626787845 3.1637280672712915 0.049501558145130214 0.017824551811072266 0.04282213591643932 0.0015980993761105467 4.693722383881686 -0.028341842389831264 12.449993880252368 -8.207803650137144 6.913283912235798 -0.018751922714336938 46.39599181654144 -0.0065691662034902745 -4.312479727833981 -14.74859324274784 -3.850360819435916 0.04581586945324563 0.022374126754012062 -0.00556859734577519 -0.026950307190402988 -10.789742280277125 0.03707205779758151 
-0.017037849014313336 0.006381930408729313 -0.01708545683154108 0.04274817940084937 0.02399637320888357 0.03661881852659909 -2.012712835485845 1.2667594973485605 -1.027101487311532 -0.899680894572785 3.6724109916649197 0.38993401058013544 -1.186141062597304 -1.5015230921219183 -0.9916965558270711 0.49682354701426956 0.35355774106685556 -0.8362786886676165 0.42989764332887864 11.241874768144946 -1.7912747450435973 0.3312708862784352 -1.0335842213650903 -5.3473404662102215 1.0716351142828537 -16.587359606607368 -0.49704756196245603 -2.9729100909657578 1.2949499153958812 -15.262927932734636 73.43110312266819 19.266307677677382 0.606571799524655 1.7068232430006165 5.703344765546886 44.66283547541082 21.64083851657474 -0.08875300824433649 -4.193825601068849 4.52406301421762 -0.14120474475878325 -1.614177603346478 -0.018924373365945 0.008659217484488276 -56.246107922432394 0.007297640306034715 0.016536001892398688 -56.25063248754943 -38.81079634823491 0.027648766581339114 -0.048348692526370106 0.024041674328277942 -0.0032183509420158113 -0.007501389053187509 -0.025459506987400803 0.01669823056583728 -0.015605815923789344 -36.73453571433196 0.010683399316769796 -0.0484754077644187 0.019334602239253977 -0.019243535414954625 -0.04351474902705285 -0.01631501442541186 -0.042403067660951296 -0.004248085912379935 -19.805716032529677 0.010203884307439424 0.03428973796603364 0.005267252691833245 0.014011680177395685 0.013365950103729228 -0.02092416622829762 -0.02089457544729443 -0.012613645080504006 24.04275602621482 0.024505789596219022 0.0026294549215637193 28.8533057991781 -0.002244017194240977 -0.03963132145942277 28.851313970634735 -0.017867641393166295 -0.013645508082692425 3.239940078752318 0.9435230616886486 13.02695123817679 -69.28222051937337 28.61925467745256 -5.497799653765232 3.263322266397696 -7.525113139843208 -49.10866557503739 -12.478901355194724 2.395324034162087 -0.19970574247409456 -0.48155228902611885 0.043200591101081515 -8.156132941077335 0.008962641417282978 -0.03507806232304674 44.611380369511856 0.01846528213558199 0.04803318032375193 44.55026995204955 12.508843427579352 0.032527910993432045 -0.01926276036619033 -0.0038775477502312845 0.017697162400811126 0.0035341817661316594 -0.012000222212775665 0.02230798888605175 0.04471644367924393 11.101701060914866 -0.02353577335661008 0.021165349932320797 0.010843637941103986 0.012499351870991564 0.019979679533576752 -0.023547085755434724 0.006615402610147365 -0.03882072316807396 4.786576502460075 0.013916909066657282 -0.012699965663851466 0.000387335650342227 -0.037966151460952384 -0.03809666042626135 0.041588599407883176 -0.02743528053851992 -0.032735846555176314 -5.634937744823019 0.0003100142084025308 -0.004148179878580078 -6.683736136625147 -0.034706322477649196 0.00538619271045783 -6.676673255589296 -0.000758192207028429 -0.01921792828161543 0.04987619318845271 -0.02840215939463994 0.02257332644712366 8.061775827533875 3.4981588998792983 -19.220342530840792 -0.02534364074614671 10.384850982477476 -0.029756868501861076 -5.657734897785835 -15.690149079196429 3.1983992941465043 0.045764543292529505 -0.02774489480091911 -0.01676523923100172 -0.005004875803567445 4.658846020374589 -0.013344681376403243 12.441545451093804 -8.24917911261961 6.868601182804427 0.024890312020641073 46.380170218275914 -0.03994894804402163 -4.362012938713082 -14.71525135956805 -3.870946052548503 0.0020063098628199725 -0.027328293489998563 -0.01099385562771273 0.0015470707035572233 -10.767648390888368 -0.0497453646520823 
-0.018369680226187495 -0.019893427150788883 0.009020039424815286 0.03251790330343274 0.04715136576601477 0.0029932298507702937 -2.0143351760051322 1.4200651882319593 -1.0380023124667999 -0.904863209518355 3.708218589011934 0.3955264686662612 -1.1052271993572271 -1.4118121586188173 -0.9221689849724236 0.38332997209962116 0.3167912187808547 -0.7712943186178225 0.34660938113302814 11.056007889987606 -1.5643563202638346 0.3709804924585002 -1.0423354054539882 -4.836749638202295 1.0001549071064615 -16.580333206488465 -0.45314892142756713 -2.8485379528241435 1.288604581977135 -15.069980586917278 73.38153869837241 18.75801695213529 0.6711689311462581 1.8085533247647316 5.919118335035482 44.86337816524035 21.673184149352302 -0.07155018958953414 -4.122700811038733 4.546765206249668 -0.12178640330690525 -1.6001373398747976 0.031433088695209714 -0.021028480692922822 -56.221156085184646 -0.005697153417170941 0.03412922892951983 -56.24379395029888 -38.750696147729535 -0.018962703711639158 -0.025248578371329673 -0.02162735356395566 0.0027699074265466954 -0.04046843071625485 0.00027691396601023794 -0.02548223284040108 0.017685184643656666 -36.72271825058735 0.04647126021750782 0.03647279705367092 0.01615053906639102 -0.03892888279897623 0.03321167328485627 0.03491817462302786 0.047991817264197 -0.023473608231901186 -19.740908560425392 -0.03198244882978983 -0.0011052179598386779 0.03867599518978609 0.0034327534108137474 -0.005542912639226191 0.04094721914610312 0.01354310595124416 -0.01691142675679927 24.069298265811035 0.04859097258673013 0.021628851317586503 28.889792575087707 -0.023413499694964913 0.020620843683178732 28.87878429741231 0.040291780912286725 0.007994880708486944 3.227823034736544 1.0316269734801489 12.950320366296761 -69.19982203243184 28.396488678941335 -5.996026892095675 3.0003612518450122 -7.029495142158447 -49.45669218439855 -12.780769593603148 2.3876359464755765 -0.20434701186473644 -0.45736596866975765 0.07870047811376253 -8.144000222335228 0.009875312483477755 0.02976379640160171 44.57931543329515 -0.012605067740979348 0.01698370318717814 44.54751808562431 12.494609417955562 -0.04919723763687422 -0.014935591216917747 0.001130861891758105 -0.025235107986828816 -0.0287420230047231 0.0492300182438463 0.015861086691274125 0.035297260368335276 11.088530999272937 -0.040120985316670146 -0.032785708908393205 -0.013127931799698792 -0.0430741212473081 -0.005684518744217236 0.047153818116486425 0.028968516516508603 -0.0005723346757138843 4.765702104276319 -0.016633350589563414 0.036888292944003025 0.01709048950937452 0.010911513861571015 0.015090641017090291 0.03443959153016906 -0.048306763240169845 -0.01473220419240771 -5.589857703719489 -0.03366703243923526 -0.0335360056658214 -6.717262896233716 0.04732334840601429 -0.024463198969712954 -6.731559730711862 -0.019193236885048353 -0.004612738440179828 -0.0034291604038658163 0.0324830646495135 0.017505798165551426 8.046462015921444 3.4798653061156504 -19.176124684481454 0.01816192897818271 10.421429147335441 -0.010320189715465718 -5.646526592718572 -15.673634948644176 3.24033334416939 0.049940677339868414 -0.002163478970529595 0.01614516193049264 0.0260639692926771 4.673520933225088 -0.0355712596440637 12.445720785700042 -8.283129020120198 6.900135012619315 0.0023510086117267334 46.40051243159257 -0.010847718348961087 -4.35179798368529 -14.747276542472154 -3.817451966135916 0.03135316421617116 0.015779406916641682 -0.0011876418935189593 0.028550559079000067 -10.778681920944674 -0.02906379879756209 
-0.037963584394393554 0.031276742253014404 -0.03529761828037644 -0.004366630090627227 -0.025214218327823917 -0.025361015495094508 -1.8928359857698211 1.7181436886741699 -0.9922651600282731 -0.8800379280783099 3.727807905457217 0.3786256378166297 -1.062430782974806 -1.323017926076961 -0.8917776606150559 0.3340061127078387 0.23791008334094693 -0.7827479331728113 0.2162791201588036 10.931836518610618 -1.3876168914609215 0.3027267940365047 -1.0604647918859202 -4.551949820958688 0.8604001573127522 -16.65458021722698 -0.4303688745175748 -2.6105188266563575 1.205979594425263 -14.913131242350683 73.315411672826 18.058675212519738 1.0643637955651366 1.6512763287439627 6.099010959356075 45.44037339303428 21.69588900615527 -0.0978120708250637 -4.169498471824358 4.494323941860436 -0.17218794970197587 -1.6208660053790422 -0.012028747751410674 0.02103786311934279 -56.18498241581859 0.02200261660185822 0.0015796416830927498 -56.203866767098006 -38.724688757808245 -0.003264336955225803 0.025906526882702122 -0.040397473007239254 -0.031116670065934205 -0.00939549616129425 -0.02588346586546446 0.011388363249094428 0.01601399107513183 -36.69710835815463 -0.02613524190879586 0.0028215909988408574 0.023684306842516333 -0.01881329011712367 -0.017335297129728033 0.013356874336111638 0.037571517753675066 0.019239385135881165 -19.753269274421864 0.02200696175091801 -0.0420284539313332 -0.019121232016482803 0.04775025869226788 -0.04614422381317975 -0.04926048735161743 -0.028775490575313343 0.04923478147225378 24.0108900732357 -0.005998571341957723 0.018463301078241998 28.876646274156784 -0.02543185781442506 0.013616655426087127 28.858680518648818 0.04940225942770452 0.046660397710512364 3.100858958201892 0.9674232628727718 12.968903164065022 -69.02958554196397 27.95011889532486 -6.374393160543101 3.1440852227528917 -6.587673298464659 -50.1264034044783 -12.94633540634972 2.3050564502024464 -0.2389632676932157 -0.5118227539647711 0.07141006571374761 -8.086564209286552 0.04793215931925865 0.02241496627396577 44.611548150423886 0.013477683625999779 -0.037244241137255184 44.59430210754778 12.460204300168732 0.00758530312437279 0.011105533292201267 0.04894551419236116 0.01696234135437977 0.02192559365167763 0.049859987070459195 0.016246546777010117 -0.021878168733768733 11.111019686932606 0.03823434099072607 -0.027910322586327956 -0.005430334385747974 -0.01214722399799471 0.012691904735881547 -0.017513148004065327 -0.006240960773681889 -0.00611562829165352 4.73269720160136 -0.0296745052966697 0.03701830753621219 -0.0010306343641457115 -0.009379107826179291 0.044264211964036675 0.01111110641924338 -0.03641834344874337 -0.011125852595192678 -5.619378602458033 0.021478960265001765 0.03774846811776602 -6.713589152123881 -0.006495234598187508 0.013240994791413966 -6.722750446050947 -0.033353668677785664 0.031378135839544165 -0.0009652491367577598 0.034095658341920396 0.021706911216783437 8.055018933635683 3.462864047224142 -19.26849496757793 0.01552844573033612 10.375246946193986 0.021835918013331655 -5.604025817389209 -15.639271679913465 3.2381799241398874 -0.03805076686994067 -0.02473823242037795 -0.02142023914794225 0.03597982797406437 4.741081026396615 0.0019250376467778686 12.432012452822056 -8.21908019292785 6.876815944839595 0.03893282431036513 46.35097781530269 0.039042371582660704 -4.293642167576258 -14.781109919503331 -3.8246797401488535 -0.048553305485659747 0.010033241668801823 -0.04932807857765596 -0.03928030579333207 -10.762206460989923 0.005332308514505127 
